<svg xmlns="http://www.w3.org/2000/svg" xmlns:xlink="http://www.w3.org/1999/xlink" width="1280" zoomAndPan="magnify" viewBox="0 0 960 540.000001" height="720" preserveAspectRatio="xMidYMid meet" version="1.0"><defs><g/><clipPath id="7f730e8739"><path d="M 0.886719 0 L 959.113281 0 L 959.113281 539 L 0.886719 539 Z M 0.886719 0 " clip-rule="nonzero"/></clipPath><clipPath id="8c76263aee"><rect x="0" width="960" y="0" height="539"/></clipPath></defs><g clip-path="url(#7f730e8739)"><g transform="matrix(1, 0, 0, 1, 0.000000000000000222, 0.000000000000017795)"><g clip-path="url(#8c76263aee)"><g fill="#000000" fill-opacity="1"><g transform="translate(-1.067364, 456.492516)"><g><path d="M 112.25 3.703125 C 76.070312 3.703125 49.941406 -5.257812 33.859375 -23.1875 C 17.773438 -41.125 9.734375 -70.039062 9.734375 -109.9375 L 9.734375 -148.90625 L 88.140625 -148.90625 L 88.140625 -99.265625 C 88.140625 -79.472656 94.476562 -69.578125 107.15625 -69.578125 C 114.257812 -69.578125 119.203125 -71.664062 121.984375 -75.84375 C 124.773438 -80.019531 126.171875 -87.054688 126.171875 -96.953125 C 126.171875 -109.929688 124.625 -120.671875 121.53125 -129.171875 C 118.4375 -137.679688 114.492188 -144.796875 109.703125 -150.515625 C 104.910156 -156.242188 96.328125 -165.132812 83.953125 -177.1875 L 49.640625 -211.515625 C 23.035156 -237.492188 9.734375 -266.253906 9.734375 -297.796875 C 9.734375 -331.816406 17.539062 -357.71875 33.15625 -375.5 C 48.78125 -393.28125 71.585938 -402.171875 101.578125 -402.171875 C 137.453125 -402.171875 163.273438 -392.660156 179.046875 -373.640625 C 194.816406 -354.617188 202.703125 -324.851562 202.703125 -284.34375 L 121.53125 -284.34375 L 121.0625 -311.71875 C 121.0625 -316.96875 119.59375 -321.140625 116.65625 -324.234375 C 113.71875 -327.328125 109.625 -328.875 104.375 -328.875 C 98.1875 -328.875 93.546875 -327.171875 90.453125 -323.765625 C 87.359375 -320.367188 85.8125 -315.734375 85.8125 -309.859375 C 85.8125 -296.867188 93.234375 -283.414062 108.078125 -269.5 L 154.46875 -224.96875 C 165.289062 -214.457031 174.253906 -204.484375 181.359375 -195.046875 C 188.472656 -185.617188 194.195312 -174.488281 198.53125 -161.65625 C 202.863281 -148.820312 205.03125 -133.59375 205.03125 -115.96875 C 205.03125 -76.695312 197.835938 -46.929688 183.453125 -26.671875 C 169.078125 -6.421875 145.34375 3.703125 112.25 3.703125 Z M 112.25 3.703125 "/></g></g></g><g fill="#000000" fill-opacity="1"><g transform="translate(212.768154, 456.492516)"><g><path d="M 6.953125 0 L 45.453125 -398.453125 L 180.4375 -398.453125 L 218.484375 0 L 142.875 0 L 137.296875 -64.46875 L 89.0625 -64.46875 L 84.421875 0 Z M 95.09375 -128.03125 L 131.265625 -128.03125 L 113.640625 -330.734375 L 109.9375 -330.734375 Z M 95.09375 -128.03125 "/></g></g></g><g fill="#000000" fill-opacity="1"><g transform="translate(437.73609, 456.492516)"><g><path d="M 13.921875 0 L 13.921875 -398.453125 L 90.921875 -398.453125 L 90.921875 0 Z M 13.921875 0 "/></g></g></g><g fill="#000000" fill-opacity="1"><g transform="translate(543.030282, 456.492516)"><g><path d="M 99.734375 3.703125 C 70.972656 3.703125 49.554688 -6.421875 35.484375 -26.671875 C 21.410156 -46.929688 14.375 -77.625 14.375 -118.75 L 14.375 -290.375 C 14.375 -327.175781 22.566406 -355.007812 38.953125 -373.875 C 55.347656 -392.738281 79.78125 -402.171875 112.25 -402.171875 C 138.539062 -402.171875 158.953125 -396.910156 173.484375 -386.390625 C 188.015625 -375.878906 198.0625 -360.570312 203.625 -340.46875 C 209.195312 -320.375 211.984375 -294.554688 211.984375 -263.015625 L 134.0625 -263.015625 L 134.0625 -298.71875 C 134.0625 -308.3125 132.742188 -315.734375 130.109375 -320.984375 C 127.484375 -326.242188 122.769531 -328.875 115.96875 -328.875 C 100.8125 -328.875 93.234375 -318.976562 93.234375 -299.1875 L 93.234375 -106.21875 C 93.234375 -94.164062 94.78125 -85.046875 97.875 -78.859375 C 100.96875 -72.671875 106.378906 -69.578125 114.109375 -69.578125 C 121.835938 -69.578125 127.25 -72.671875 130.34375 -78.859375 C 133.4375 -85.046875 134.984375 -94.164062 134.984375 -106.21875 L 134.984375 -163.28125 L 113.640625 -163.28125 L 113.640625 -231.921875 L 211.0625 -231.921875 L 211.0625 0 L 179.046875 0 L 165.59375 -33.390625 C 151.375 -8.660156 129.421875 3.703125 99.734375 3.703125 Z M 99.734375 3.703125 "/></g></g></g><g fill="#000000" fill-opacity="1"><g transform="translate(767.99827, 456.492516)"><g><path d="M 17.625 0 L 17.625 -398.453125 L 177.1875 -398.453125 L 177.1875 -321.453125 L 98.796875 -321.453125 L 98.796875 -243.984375 L 173.953125 -243.984375 L 173.953125 -168.84375 L 98.796875 -168.84375 L 98.796875 -77.46875 L 182.296875 -77.46875 L 182.296875 0 Z M 17.625 0 "/></g></g></g></g></g></g></svg>